<?xml version="1.0" encoding="utf-8"?>
<!-- Generator: Adobe Illustrator 22.1.0, SVG Export Plug-In . SVG Version: 6.00 Build 0)  -->
<svg version="1.1" id="Layer_1" xmlns="http://www.w3.org/2000/svg" xmlns:xlink="http://www.w3.org/1999/xlink" x="0px" y="0px"
	 viewBox="0 0 425.2 76.6" style="enable-background:new 0 0 425.2 76.6;" xml:space="preserve">
<style type="text/css">
	.st0{fill:#FFFFFF;}
</style>
<g>
	<polygon class="st0" points="49,0 49,45 21.1,0 0,0 0,0 49,76.6 66.6,76.6 66.6,0 	"/>
	<polygon class="st0" points="161.7,0 161.7,15.9 181.6,15.9 181.6,76.6 199.7,76.6 199.7,15.9 219.7,15.9 219.7,0 	"/>
	<polygon class="st0" points="243,0 243,60.7 223,60.7 223,76.6 281.1,76.6 281.1,60.7 261.2,60.7 261.2,0 	"/>
	<rect y="58.3" class="st0" width="18.2" height="18.2"/>
	<polygon class="st0" points="107.7,0 84.5,76.6 103.4,76.6 120,15 136.5,76.6 156.1,76.6 132.8,0 	"/>
	<polygon class="st0" points="337.2,0 320.6,61.6 304.1,0 284.5,0 307.8,76.6 332.9,76.6 356,0 	"/>
	<polygon class="st0" points="390.6,60.8 372.5,60.8 372.5,76.6 425.2,76.6 425.2,60.8 	"/>
	<polygon class="st0" points="372.5,29.6 372.5,45.2 386.2,45.2 386.2,45.2 407,45.2 407,29.6 386.2,29.6 	"/>
	<polygon class="st0" points="372.5,0 372.5,15.8 390.6,15.8 390.6,15.8 425.2,15.8 425.2,0 	"/>
</g>
</svg>
