<?xml version="1.0" encoding="utf-8"?>
<!-- Generator: Adobe Illustrator 22.1.0, SVG Export Plug-In . SVG Version: 6.00 Build 0)  -->
<svg version="1.1" id="Layer_1" xmlns="http://www.w3.org/2000/svg" xmlns:xlink="http://www.w3.org/1999/xlink" x="0px" y="0px"
	 viewBox="0 0 425.2 185.5" style="enable-background:new 0 0 425.2 185.5;" xml:space="preserve">
<g>
	<polygon points="49,0 49,45 21.1,0 0,0 0,0 49,76.6 66.6,76.6 66.6,0 	"/>
	<polygon points="161.7,0 161.7,15.9 181.6,15.9 181.6,76.6 199.7,76.6 199.7,15.9 219.7,15.9 219.7,0 	"/>
	<polygon points="243,0 243,60.7 223,60.7 223,76.6 281.1,76.6 281.1,60.7 261.2,60.7 261.2,0 	"/>
	<rect y="58.3" width="18.2" height="18.2"/>
	<polygon points="107.7,0 84.5,76.6 103.4,76.6 120,15 136.5,76.6 156.1,76.6 132.8,0 	"/>
	<polygon points="337.2,0 320.6,61.6 304.1,0 284.5,0 307.8,76.6 332.9,76.6 356,0 	"/>
	<polygon points="390.6,60.8 372.5,60.8 372.5,76.6 425.2,76.6 425.2,60.8 	"/>
	<polygon points="372.5,29.6 372.5,45.2 386.2,45.2 386.2,45.2 407,45.2 407,29.6 386.2,29.6 	"/>
	<polygon points="372.5,0 372.5,15.8 390.6,15.8 425.2,15.8 425.2,0 	"/>
	<path d="M253.3,122c0-5.6,4.2-9.4,9.3-9.4c3.2,0,5.4,1.4,7,3.4l-1.8,1.1c-1.1-1.5-3.1-2.5-5.3-2.5c-4,0-7,3-7,7.4
		c0,4.3,3,7.4,7,7.4c2.2,0,4-1.1,4.9-2v-3.7h-6.2v-2h8.5v6.6c-1.7,1.9-4.2,3.1-7.1,3.1C257.5,131.4,253.3,127.6,253.3,122"/>
	<polygon points="333.3,131 322.7,116.6 322.7,131 320.4,131 320.4,112.9 322.8,112.9 333.2,127.1 333.2,112.9 335.5,112.9 
		335.5,131 	"/>
	<path d="M354.9,122c0-5.6,4.1-9.4,9.3-9.4c3.2,0,5.4,1.5,6.9,3.6l-1.9,1.1c-1-1.5-2.9-2.6-5-2.6c-4,0-7,3-7,7.4c0,4.3,3,7.4,7,7.4
		c2.1,0,3.9-1.1,5-2.6l1.9,1.1c-1.5,2.1-3.7,3.6-6.9,3.6C359,131.4,354.9,127.6,354.9,122"/>
	<polygon points="397.7,131 397.7,123.4 390.5,112.9 393.1,112.9 398.8,121.3 404.4,112.9 407,112.9 399.9,123.4 399.9,131 	"/>
	<path d="M31.3,122c0-3.9-2.5-7.1-7-7.1h-3.9V129h3.9C28.8,129,31.3,125.9,31.3,122 M18.2,131v-18.1h6.2c5.6,0,9.3,3.9,9.3,9.1
		c0,5.2-3.7,9.1-9.3,9.1H18.2z"/>
	<path d="M84.4,128.5l1.3-1.7c1.2,1.3,3.2,2.6,5.7,2.6c3.2,0,4.3-1.7,4.3-3.1c0-4.7-10.7-2.1-10.7-8.6c0-3,2.7-5,6.2-5
		c2.8,0,4.9,0.9,6.4,2.5l-1.4,1.7c-1.4-1.5-3.3-2.2-5.3-2.2c-2.2,0-3.7,1.2-3.7,2.9c0,4.1,10.7,1.7,10.7,8.5c0,2.6-1.8,5.3-6.7,5.3
		C88.2,131.4,85.8,130.2,84.4,128.5"/>
	<rect x="117.4" y="112.9" width="2.3" height="18.1"/>
	<path d="M139.1,122c0-5.6,4.2-9.4,9.3-9.4c3.2,0,5.4,1.4,7,3.4l-1.8,1.1c-1.1-1.5-3.1-2.5-5.3-2.5c-4,0-7,3-7,7.4
		c0,4.3,3,7.4,7,7.4c2.2,0,4-1.1,4.9-2v-3.7H147v-2h8.5v6.6c-1.7,1.9-4.2,3.1-7.1,3.1C143.2,131.4,139.1,127.6,139.1,122"/>
	<polygon points="187.8,131 177.2,116.6 177.2,131 174.9,131 174.9,112.9 177.2,112.9 187.7,127.1 187.7,112.9 189.9,112.9 
		189.9,131 	"/>
	<polygon points="228.2,112.9 225.4,112.9 218.1,131 220.7,131 226.8,115.2 232.9,131 235.5,131 	"/>
	<rect x="289.2" y="120.7" width="11.7" height="2"/>
	<rect x="289.2" y="129" width="11.9" height="2"/>
	<rect x="289.2" y="112.9" width="11.9" height="2"/>
	<rect x="53.1" y="129" width="11.9" height="2"/>
	<rect x="53.1" y="120.7" width="11.7" height="2"/>
	<rect x="53.1" y="112.9" width="11.9" height="2"/>
	<polygon points="219.9,167.4 212.6,174.6 205.3,167.4 203.5,167.4 203.5,169.1 210.8,176.4 203.5,183.7 203.5,185.5 205.3,185.5 
		212.6,178.2 219.9,185.5 221.7,185.5 221.7,183.7 214.4,176.4 221.7,169.1 221.7,167.4 	"/>
</g>
</svg>
